ModelForces
version=1
nRows=4
nColumns=155
inDegrees=no

This file contains the forces exerted on a model during a simulation.

A force is a generalized force, meaning that it can be either a force (N) or a torque (Nm).

Units are S.I. units (second, meters, Newtons, ...)
Angles are in degrees.

endheader
time	glut_med1_r	glut_med2_r	glut_med3_r	glut_min1_r	glut_min2_r	glut_min3_r	semimem_r	semiten_r	bifemlh_r	bifemsh_r	sar_r	add_long_r	add_brev_r	add_mag1_r	add_mag2_r	add_mag3_r	tfl_r	pect_r	grac_r	glut_max1_r	glut_max2_r	glut_max3_r	iliacus_r	psoas_r	quad_fem_r	gem_r	peri_r	rect_fem_r	vas_med_r	vas_int_r	vas_lat_r	med_gas_r	lat_gas_r	soleus_r	tib_post_r	flex_dig_r	flex_hal_r	tib_ant_r	per_brev_r	per_long_r	per_tert_r	ext_dig_r	ext_hal_r	glut_med1_l	glut_med2_l	glut_med3_l	glut_min1_l	glut_min2_l	glut_min3_l	semimem_l	semiten_l	bifemlh_l	bifemsh_l	sar_l	add_long_l	add_brev_l	add_mag1_l	add_mag2_l	add_mag3_l	tfl_l	pect_l	grac_l	glut_max1_l	glut_max2_l	glut_max3_l	iliacus_l	psoas_l	quad_fem_l	gem_l	peri_l	rect_fem_l	vas_med_l	vas_int_l	vas_lat_l	med_gas_l	lat_gas_l	soleus_l	tib_post_l	flex_dig_l	flex_hal_l	tib_ant_l	per_brev_l	per_long_l	per_tert_l	ext_dig_l	ext_hal_l	ercspn_r	ercspn_l	intobl_r	intobl_l	extobl_r	extobl_l	femur_lat_meniscii_r.femur_lat_r.force.X	femur_lat_meniscii_r.femur_lat_r.force.Y	femur_lat_meniscii_r.femur_lat_r.force.Z	femur_lat_meniscii_r.femur_lat_r.torque.X	femur_lat_meniscii_r.femur_lat_r.torque.Y	femur_lat_meniscii_r.femur_lat_r.torque.Z	femur_lat_meniscii_r.meniscus_lat_r.force.X	femur_lat_meniscii_r.meniscus_lat_r.force.Y	femur_lat_meniscii_r.meniscus_lat_r.force.Z	femur_lat_meniscii_r.meniscus_lat_r.torque.X	femur_lat_meniscii_r.meniscus_lat_r.torque.Y	femur_lat_meniscii_r.meniscus_lat_r.torque.Z	femur_med_meniscii_r.femur_med_r.force.X	femur_med_meniscii_r.femur_med_r.force.Y	femur_med_meniscii_r.femur_med_r.force.Z	femur_med_meniscii_r.femur_med_r.torque.X	femur_med_meniscii_r.femur_med_r.torque.Y	femur_med_meniscii_r.femur_med_r.torque.Z	femur_med_meniscii_r.meniscus_med_r.force.X	femur_med_meniscii_r.meniscus_med_r.force.Y	femur_med_meniscii_r.meniscus_med_r.force.Z	femur_med_meniscii_r.meniscus_med_r.torque.X	femur_med_meniscii_r.meniscus_med_r.torque.Y	femur_med_meniscii_r.meniscus_med_r.torque.Z	femur_med_tibia_r.tibia_upper_r.force.X	femur_med_tibia_r.tibia_upper_r.force.Y	femur_med_tibia_r.tibia_upper_r.force.Z	femur_med_tibia_r.tibia_upper_r.torque.X	femur_med_tibia_r.tibia_upper_r.torque.Y	femur_med_tibia_r.tibia_upper_r.torque.Z	femur_med_tibia_r.femur_med_r.force.X	femur_med_tibia_r.femur_med_r.force.Y	femur_med_tibia_r.femur_med_r.force.Z	femur_med_tibia_r.femur_med_r.torque.X	femur_med_tibia_r.femur_med_r.torque.Y	femur_med_tibia_r.femur_med_r.torque.Z	femur_lat_tibia_r.tibia_upper_r.force.X	femur_lat_tibia_r.tibia_upper_r.force.Y	femur_lat_tibia_r.tibia_upper_r.force.Z	femur_lat_tibia_r.tibia_upper_r.torque.X	femur_lat_tibia_r.tibia_upper_r.torque.Y	femur_lat_tibia_r.tibia_upper_r.torque.Z	femur_lat_tibia_r.femur_lat_r.force.X	femur_lat_tibia_r.femur_lat_r.force.Y	femur_lat_tibia_r.femur_lat_r.force.Z	femur_lat_tibia_r.femur_lat_r.torque.X	femur_lat_tibia_r.femur_lat_r.torque.Y	femur_lat_tibia_r.femur_lat_r.torque.Z	aACL_R	pACL_R	aPCL_R	pPCL_R	aMCL_R	mMCL_R	pMCL_R	aLCL_R	mLCL_R	pLCL_R	aPCL_L	pPCL_L	aMCL_L	aLCL_L
      0.16676619	     11.32412327	      8.26801247	      8.89165087	      3.81891947	      4.44133161	      4.79968512	      0.00000000	    165.34493831	    144.88035580	    301.57239539	    129.58657136	      8.22788569	      5.92776460	      3.83921237	      3.60476410	      6.07182480	      4.92338097	      3.22327267	     99.05818693	      5.33833711	      8.12080133	      6.10176614	     27.40413038	     18.36607143	      5.25039609	      3.63240307	      6.21760885	     56.00898842	     31.01673412	     33.23984835	     44.97592549	      0.00000000	      0.00000000	      0.00000000	      0.00000000	      0.00000000	      0.00000000	     34.16901044	      2.17966295	      2.82162070	      2.42928265	     43.75973280	     11.18120310	     11.32412327	      8.26801247	      8.89165087	      3.81891947	      4.44133161	      4.79968512	      0.00000000	      6.12334330	     12.09053387	     10.45012526	      2.17907828	      8.22788569	      5.92776460	      3.83921237	      3.60476410	      6.07182480	      5.38649714	      3.22327267	      2.24915354	      5.33833711	      8.12080133	      6.10176614	     27.40413038	     18.36607143	      5.25039609	      3.63240307	      6.21760885	     16.82785316	      0.00000000	      0.00000000	      0.00000000	     21.11360520	      9.96724481	     50.34735040	     50.74194960	      5.39820752	      4.82866521	     13.10230261	      7.00459824	     18.03976466	      2.83974988	      8.73535066	      2.74595564	     35.94557696	     35.94557696	     13.34640538	     13.34640538	     30.72229820	     30.72229820	    126.37901236	    206.64072667	     25.15558388	    -15.08059174	      3.09439169	     49.59792557	   -126.37901236	   -206.64072667	    -25.15558388	      5.66352055	     -3.81074702	      3.59695746	     29.78866078	     23.93119745	     11.31817448	     -4.01216596	     -0.66577326	     11.93920110	    -29.78866078	    -23.93119745	    -11.31817448	     -0.32841716	      0.38408498	      0.08051960	   -757.80964954	   -674.54892181	    225.11511818	    -15.57462733	     17.19804790	     -0.84350696	    757.80964954	    674.54892181	   -225.11511818	    103.63376883	    -13.62131005	    307.99636447	      0.00000000	      0.00000000	      0.00000000	      0.00000000	      0.00000000	      0.00000000	      0.00000000	      0.00000000	      0.00000000	      0.00000000	      0.00000000	      0.00000000	     -0.37378041	      0.00000000	    597.13734716	    382.51218078	      0.00000000	      0.00000000	      0.00000000	      0.00000000	      0.00000000	      0.00000000	      0.00000000	      0.00000000	      0.00000001	      0.00000000
      0.16696095	     11.31489053	      8.26133766	      8.88438644	      3.81596296	      4.43809731	      4.79555321	      0.00000000	    165.35697620	    144.92232563	    301.64433865	    129.57093559	      8.22116675	      5.92321819	      3.85972080	      3.60180080	      6.06645494	      4.91622626	      3.22075949	     99.04076778	      5.33401071	      8.11420496	      6.09673249	     27.39183476	     18.35205030	      5.24624281	      3.63037554	      6.21537078	     56.19401011	     31.03430425	     33.24724271	     44.97501991	      0.00000000	      0.00000000	      0.00000000	      0.00000000	      0.00000000	      0.00000000	     34.19939572	      2.17315061	      2.82041002	     21.24652111	     43.91113346	     11.22155211	     11.31489053	      8.26133766	      8.88438644	      3.81596296	      4.43809731	      4.79555321	      0.00000000	      6.11808485	     12.08023865	     10.44184934	      2.17739917	      8.22116675	      5.92321819	      3.85972080	      3.60180080	      6.06645494	      5.38318711	      3.22075949	      2.24738996	      5.33401071	      8.11420496	      6.09673249	     27.39183476	     18.35205030	      5.24624280	      3.63037554	      6.21537078	     16.81232200	      0.00000000	      0.00000000	      0.00000000	     21.10836652	      9.96410831	     50.30920445	     50.72212969	      5.39368123	      4.82448225	     13.09084161	      6.99811479	     18.02754902	      2.83758979	      8.72757774	      2.74368945	     35.91768624	     35.91768624	     13.33521413	     13.33521413	     30.71215563	     30.71215563	    126.54089340	    206.57557144	     25.14344214	    -15.07685577	      3.09562939	     49.65786016	   -126.54089340	   -206.57557144	    -25.14344214	      5.66408006	     -3.81314309	      3.60938315	     29.77256275	     23.74010422	     11.22404149	     -3.97948377	     -0.66425258	     11.93216422	    -29.77256275	    -23.74010422	    -11.22404149	     -0.32527266	      0.38409630	      0.07906813	   -760.21901120	   -674.32649282	    224.62581330	    -15.54177227	     17.22107133	     -0.83413954	    760.21901120	    674.32649282	   -224.62581330	    103.41963108	    -13.65191521	    308.96077221	      0.00000000	      0.00000000	      0.00000000	      0.00000000	      0.00000000	      0.00000000	      0.00000000	      0.00000000	      0.00000000	      0.00000000	      0.00000000	      0.00000000	     -0.48576997	      0.00000000	    599.12540702	    383.67813275	      0.00000000	      0.00000000	      0.00000000	      0.00000000	      0.00000000	      0.00000000	      0.00000000	      0.00000000	      0.00000001	      0.00000000
      0.16725287	     11.30108131	      8.25136562	      8.87353362	      3.81154584	      4.43326531	      4.78937999	      0.00000000	    165.36887147	    144.98164208	    301.72168237	    129.54467419	      8.21112886	      5.91642566	      3.88750847	      3.59737371	      6.05843244	      4.90542817	      3.21700475	     99.01185279	      5.32754726	      8.10435025	      6.08921246	     27.37346618	     18.33110414	      5.24003778	      3.62734667	      6.21199046	     56.46089536	     31.02748510	     33.23859851	     44.95931989	      0.00000000	      0.00000000	      0.00000000	      0.00000000	      0.00000000	      0.00000000	     34.24446115	      2.16360229	      2.81871584	     23.00863028	     44.10119341	     11.26696841	     11.30108131	      8.25136562	      8.87353362	      3.81154584	      4.43326531	      4.78937999	      0.00000000	      6.11022896	     12.06483912	     10.42948515	      2.17489053	      8.21112886	      5.91642566	      3.88750847	      3.59737371	      6.05843244	      5.37824176	      3.21700475	      2.24475513	      5.32754726	      8.10435025	      6.08921246	     27.37346618	     18.33110414	      5.24003778	      3.62734667	      6.21199046	     16.78911480	      0.00000000	      0.00000000	      0.00000000	     21.10043279	      9.95937204	     50.25206302	     50.69249545	      5.38687306	      4.81817956	     13.07370843	      6.98842374	     18.00927398	      2.83436280	      8.71604495	      2.74033606	     35.87601679	     35.87601679	     13.31849487	     13.31849487	     30.69700372	     30.69700372	    126.71408090	    206.50794040	     25.47255842	    -15.20711581	      3.10025109	     49.71881983	   -126.71408090	   -206.50794040	    -25.47255842	      5.66649143	     -3.82669133	      3.63063588	     29.83269157	     23.58039298	     11.14391287	     -3.95064596	     -0.66457446	     11.95515626	    -29.83269157	    -23.58039298	    -11.14391287	     -0.32379058	      0.38532097	      0.07857511	   -762.89285691	   -674.31799774	    224.86805193	    -15.52040307	     17.27467422	     -0.78309248	    762.89285691	    674.31799774	   -224.86805193	    103.50429832	    -13.69505191	    310.01372067	      0.00000000	      0.00000000	      0.00000000	      0.00000000	      0.00000000	      0.00000000	      0.00000000	      0.00000000	      0.00000000	      0.00000000	      0.00000000	      0.00000000	     -0.56704354	      0.00000000	    602.06054813	    385.30784830	      0.00000000	      0.00000000	      0.00000000	      0.00000000	      0.00000000	      0.00000000	      0.00000000	      0.00000000	      0.00000001	      0.00000000
      0.16808851	     11.26174946	      8.22303502	      8.84270131	      3.79899588	      4.41953747	      4.77184054	      0.00000000	    165.37454303	    145.16026198	    301.92504843	    129.45712134	      8.18261176	      5.89712626	      3.95042111	      3.58479657	      6.03564037	      4.87406113	      3.20633697	     98.91588228	      5.30918522	      8.07635399	      6.06784902	     27.32128657	     18.27160356	      5.22240875	      3.61874319	      6.20214671	     57.15070114	     30.79667236	     33.09460661	     44.82996832	      0.00000000	      0.00000000	      0.00000000	      0.00000000	      0.00000000	      0.00000000	     34.37000185	      2.13594059	      2.81320398	     47.41328808	     44.29225965	     11.26538603	     11.26174946	      8.22303502	      8.84270131	      3.79899588	      4.41953747	      4.77184054	      0.00000000	      6.08791120	     12.02096843	     10.39435753	      2.16776286	      8.18261176	      5.89712626	      3.95042111	      3.58479657	      6.03564037	      5.36419047	      3.20633697	      2.23726924	      5.30918522	      8.07635399	      6.06784902	     27.32128657	     18.27160356	      5.22240875	      3.61874319	      6.20214671	     16.72315764	      0.00000000	      0.00000000	      0.00000000	     21.07718722	      9.94558502	     50.08873544	     50.60815094	      5.36722411	      4.79991698	     13.02496441	      6.96085971	     17.95719148	      2.82519591	      8.68380418	      2.73102027	     35.75762554	     35.75762554	     13.27099709	     13.27099709	     30.65396283	     30.65396283	    127.79717622	    207.53682905	     26.31577560	    -15.59047459	      3.12388511	     50.12001720	   -127.79717622	   -207.53682905	    -26.31577560	      5.72379096	     -3.87484121	      3.71785463	     30.03195717	     22.93396516	     10.67746421	     -3.77801213	     -0.66667577	     12.03337045	    -30.03195717	    -22.93396516	    -10.67746421	     -0.31817267	      0.39504235	      0.07119628	   -772.52834342	   -672.58120954	    226.00186580	    -15.44713918	     17.46655073	     -0.74047937	    772.52834342	    672.58120954	   -226.00186580	    103.90258090	    -13.85073646	    313.86295888	      0.00000000	      0.00000000	      0.00000000	      0.00000000	      0.00000000	      0.00000000	      0.00000000	      0.00000000	      0.00000000	      0.00000000	      0.00000000	      0.00000000	     -0.61520938	      0.00000000	    610.33467446	    389.68378047	      0.00000000	      0.00000000	      0.00000000	      0.00000000	      0.00000000	      0.00000000	      0.00000000	      0.00000000	      0.00000001	      0.00000000
